<mxfile host="app.diagrams.net" modified="2024-03-11T09:05:06.962Z" agent="Mozilla/5.0 (Macintosh; Intel Mac OS X 10_15_7) AppleWebKit/537.36 (KHTML, like Gecko) Chrome/122.0.0.0 Safari/537.36" version="22.1.18" etag="O-N179Rz0J8gCOiI3NlU" type="github">
  <diagram name="第 1 页" id="LKJNysD-zIzkySMgqEFI">
    <mxGraphModel>
      <root>
        <mxCell id="0" />
        <mxCell id="1" parent="0" />
      </root>
    </mxGraphModel>
  </diagram>
</mxfile>
